<?xml version="1.0"?>
<svg xmlns="http://www.w3.org/2000/svg" height="512px" viewBox="-21 -64 681.3314 681" width="512px"><path d="m636.90625 278.402344-69.023438-112.820313c-.054687-.085937-.113281-.164062-.164062-.246093-.054688-.085938-.109375-.164063-.164062-.246094-.113282-.171875-.230469-.339844-.359376-.507813-.046874-.066406-.105468-.128906-.15625-.199219-.15625-.195312-.304687-.390624-.472656-.574218-.035156-.039063-.074218-.078125-.113281-.117188-.09375-.105468-.191406-.210937-.296875-.316406-.039062-.039062-.078125-.082031-.117188-.125-.34375-.347656-.714843-.664062-1.09375-.964844-.074218-.054687-.148437-.113281-.214843-.167968-.296875-.222657-.601563-.433594-.917969-.628907-.042969-.027343-.089844-.058593-.136719-.085937-.0625-.039063-.121093-.078125-.183593-.113282-.011719-.003906-.015626-.015624-.023438-.019531-.023438-.015625-.054688-.019531-.078125-.039062-.390625-.21875-.789063-.414063-1.195313-.589844-.058593-.023437-.113281-.054687-.171874-.078125-.039063-.019531-.074219-.035156-.113282-.046875-.445312-.179687-.902344-.332031-1.367187-.464844-.066407-.015625-.136719-.039062-.199219-.054687-.023438-.003906-.039062-.011719-.058594-.023438l-201.847656-51.480468c-.28125-.066407-.5625-.117188-.847656-.171876-4.882813-11.003906-10.554688-19.714843-17.070313-26.230468-15.980469-15.980469-35.691406-31.261719-70.339843-39.824219-23.074219-5.699219-44.558594-6.019531-45.351563-6.109375-.914063-.101562-1.839844-.152344-2.761719-.152344h-21.453125v-13.699218c0-10.277344-6.277343-19.515626-15.832031-23.296876-2.992188-1.179687-6.117188-1.753906-9.207031-1.753906-6.792969 0-13.449219 2.7656252-18.28125 7.917969l-58.121094 61.996094c-4.550781 4.851562-6.984375 11.320312-6.761719 17.964843.222656 6.652344 3.082032 12.941407 7.945313 17.480469l58.117187 54.246094c4.734375 4.414063 10.875 6.734375 17.097656 6.734375 3.371094 0 6.769532-.675781 9.980469-2.070312 9.144531-3.976563 15.0625-13.003907 15.0625-22.976563v-5.945313h21.453125c9.136719 0 17.738282.730469 25.789063 2.191407l-4.3125 2.421875-141.277344 77.535156c-.09375.046875-.179687.105469-.273437.160156-.027344.019532-.058594.035156-.09375.054688-.042969.027344-.089844.046875-.136719.078125-.0625.039062-.125.082031-.1875.121093-.140625.085938-.277344.183594-.410157.277344-.113281.078125-.230468.152344-.335937.234375-.03125.019531-.054687.039063-.082031.058594-.128906.097656-.246094.195313-.367188.296875-.117187.09375-.238281.191406-.351562.292969-.042969.03125-.085938.070312-.128906.109375-.058594.054687-.117188.113281-.175782.171875-.03125.023437-.054687.050781-.082031.078125-.105469.097656-.210937.195312-.3125.300781-.070313.070313-.132813.144531-.199219.210937-.089844.09375-.171875.191407-.261718.289063-.0625.070313-.125.144531-.1875.21875-.09375.105469-.175782.21875-.257813.332031-.09375.109375-.183594.222656-.265625.339844-.023438.035156-.046875.0625-.070312.09375-.148438.203125-.28125.417969-.410157.628906-.050781.078125-.101562.148438-.148437.226563l-20.398438 34.214843c-3.542968 5.945313-1.59375 13.632813 4.347656 17.175782 5.941407 3.535156 13.628907 1.597656 17.167969-4.347656l15.667969-26.277344 142.765625 34.828125 81.753906 19.953125-84.953125 139.46875-221.988281-55.988282 17.976563-30.15625c3.542968-5.941406 1.59375-13.625-4.347657-17.167968-5.9375-3.542969-13.625-1.601563-17.167969 4.34375l-26.585937 44.597656c-2.023437 3.394531-2.328125 7.554688-.8125 11.207031 1.515625 3.65625 4.671875 6.378907 8.511719 7.347657l86.304687 21.769531v55.582031c0 5.773438 3.941407 10.796875 9.550781 12.167969l250.152344 61.03125c.285156.070312.578125.109375.871094.15625.183594.035156.367188.078125.546875.101562.515625.066407 1.03125.097657 1.546875.097657.488281 0 .976562-.039063 1.457031-.089844.109375-.015625.214844-.03125.324219-.046875.472656-.066407.941406-.152344 1.402344-.277344.074218-.019531.140625-.042969.214844-.0625.425781-.121094.84375-.261719 1.253906-.429687.082031-.027344.160156-.058594.242187-.089844.449219-.191406.886719-.410156 1.3125-.65625.039063-.015625.078125-.03125.117188-.050782l198.757812-116.097656c3.84375-2.246094 6.210938-6.363281 6.210938-10.8125v-123.351562h56.496093c4.53125 0 8.707032-2.449219 10.925782-6.40625 2.210937-3.949219 2.121094-8.789063-.246094-12.65625zm-112.671875-101.726563-167.707031 96.726563-28.492188-6.953125.078125-46.117188c.492188 2.960938.671875 4.832031.703125 5.195313.777344 13.285156 11.78125 23.453125 24.964844 23.453125.375 0 .75-.011719 1.128906-.027344 13.703125-.597656 24.367188-12.246094 23.933594-25.957031-.035156-1.042969-.867188-25.867188-5.300781-54.554688-1.8125-11.695312-3.945313-22.304687-6.410157-31.875zm-348.667969-69.128906v31l-58.121094-54.246094 58.121094-61.996093v38.746093s34.890625-.644531 46.5 0c26.9375 1.492188 70.929688 6.601563 100.738282 38.746094 25.335937 27.320313 31 123.996094 31 123.996094s-7.75-116.246094-131.738282-116.246094c-1.378906 0-46.5 0-46.5 0zm80.007813 51.640625 23.882812-13.410156c9.03125 5.011718 16.953125 11.4375 23.742188 19.277344-.011719.261718-.039063.511718-.039063.773437l-.164062 94.511719-160.421875-39.136719zm-134.761719 267.425781 135.898438 34.277344c1.015624.257813 2.046874.378906 3.058593.378906 4.296875 0 8.386719-2.21875 10.695313-6.007812l12.910156-21.195313 34.953125 6.535156c.773437.144532 1.546875.214844 2.3125.214844 5.914063 0 11.171875-4.203125 12.296875-10.226562 1.273438-6.796875-3.207031-13.339844-10.003906-14.613282l-25.621094-4.789062 48.601562-79.792969v189.566407l-225.101562-54.921876zm423.863281-12.992187-173.710937 101.46875v-221.097656l173.710937-100.191407zm25.050781-141.207032v-55.828124l34.15625 55.828124zm0 0" fill="#49a251"/><path d="m489.679688 323.488281c-3.882813-2.238281-8.671876-2.21875-12.546876.042969l-82.660156 48.21875c-3.851562 2.25-6.214844 6.367188-6.214844 10.820312v75.726563c0 4.492187 2.410157 8.644531 6.316407 10.871094 1.925781 1.101562 4.070312 1.652343 6.207031 1.652343 2.203125 0 4.402344-.578124 6.367188-1.738281l82.660156-48.769531c3.816406-2.25 6.160156-6.351562 6.160156-10.789062v-75.179688c.003906-4.484375-2.398438-8.625-6.289062-10.855469zm-18.761719 78.886719-57.609375 33.992188v-46.605469l57.609375-33.609375zm0 0" fill="#49a251"/><path d="m322.925781 459.808594-26.523437-4.96875c-6.796875-1.265625-13.34375 3.210937-14.613282 10.011718-1.273437 6.796876 3.210938 13.34375 10.007813 14.613282l26.527344 4.960937c.777343.148438 1.550781.214844 2.316406.214844 5.914063 0 11.171875-4.199219 12.296875-10.222656 1.273438-6.800781-3.207031-13.339844-10.011719-14.609375zm0 0" fill="#49a251"/><path d="m400.796875 336.019531c2.148437 0 4.328125-.550781 6.316406-1.714843l35.085938-20.550782c5.972656-3.492187 7.972656-11.167968 4.480469-17.136718-3.496094-5.972657-11.167969-7.972657-17.132813-4.480469l-35.09375 20.550781c-5.96875 3.492188-7.972656 11.167969-4.480469 17.132812 2.335938 3.984376 6.523438 6.199219 10.824219 6.199219zm0 0" fill="#49a251"/><path d="m469.617188 268.925781-.601563.140625c-6.738281 1.585938-10.917969 8.324219-9.339844 15.054688 1.355469 5.773437 6.496094 9.667968 12.183594 9.667968.945313 0 1.90625-.105468 2.871094-.332031l.605469-.140625c6.734374-1.578125 10.914062-8.320312 9.335937-15.054687s-8.320313-10.910157-15.054687-9.335938zm0 0" fill="#49a251"/><path d="m64.28125 313.890625c.949219 0 1.90625-.105469 2.871094-.332031l.605468-.140625c6.734376-1.578125 10.917969-8.316407 9.335938-15.054688-1.578125-6.734375-8.316406-10.910156-15.050781-9.335937l-.609375.140625c-6.734375 1.578125-10.914063 8.320312-9.332032 15.054687 1.347657 5.773438 6.496094 9.667969 12.179688 9.667969zm0 0" fill="#49a251"/></svg>
