<?xml version="1.0" encoding="iso-8859-1"?>
<!-- Generator: Adobe Illustrator 19.0.0, SVG Export Plug-In . SVG Version: 6.00 Build 0)  -->
<svg xmlns="http://www.w3.org/2000/svg" xmlns:xlink="http://www.w3.org/1999/xlink" version="1.1" id="Capa_1" x="0px" y="0px" viewBox="0 0 497.208 497.208" style="enable-background:new 0 0 497.208 497.208;" xml:space="preserve" width="512px" height="512px">
<g>
	<g>
		<path d="M466.292,240c-33.44,0-64.48-16.608-83.032-44.44l-6.656-9.984l-6.656,9.984C351.396,223.392,320.356,240,286.916,240    h-30.312v128.288c0,31.008,13.96,60.152,37.288,79.712H128.604v-32h104V272h-168v64h-48V16h352v144h16V0h-384v347.312L117.292,464    h201.192l58.12,33.208l67.6-38.624c32.32-18.464,52.4-53.072,52.4-90.296V240H466.292z M112.604,436.688L27.916,352h84.688    V436.688z M80.604,336v-48h136v112h-88v-64H80.604z M480.604,368.288c0,31.504-16.992,60.776-44.336,76.408l-59.664,34.096    l-59.664-34.096c-27.344-15.632-44.336-44.904-44.336-76.408V256h14.312c35.04,0,67.808-15.72,89.688-42.544    C398.484,240.28,431.252,256,466.292,256h14.312V368.288z" fill="#55a455"/>
	</g>
</g>
<g>
	<g>
		<path d="M448.604,320v48.288c0,20.048-10.816,38.68-28.216,48.624l7.936,13.888c22.376-12.784,36.28-36.736,36.28-62.512V320    H448.604z" fill="#55a455"/>
	</g>
</g>
<g>
	<g>
		<path d="M48.604,32v48h288V32H48.604z M320.604,64h-256V48h256V64z" fill="#55a455"/>
	</g>
</g>
<g>
	<g>
		<polygon points="442.948,274.344 336.604,380.688 310.26,354.344 298.948,365.656 336.604,403.312 454.26,285.656   " fill="#55a455"/>
	</g>
</g>
<g>
	<g>
		<rect x="96.604" y="304" width="104" height="16" fill="#55a455"/>
	</g>
</g>
<g>
	<g>
		<rect x="144.604" y="336" width="56" height="16" fill="#55a455"/>
	</g>
</g>
<g>
	<g>
		<rect x="144.604" y="368" width="56" height="16" fill="#55a455"/>
	</g>
</g>
<g>
	<g>
		<rect x="48.604" y="112" width="256" height="16" fill="#55a455"/>
	</g>
</g>
<g>
	<g>
		<rect x="48.604" y="144" width="256" height="16" fill="#55a455"/>
	</g>
</g>
<g>
	<g>
		<rect x="48.604" y="176" width="256" height="16" fill="#55a455"/>
	</g>
</g>
<g>
	<g>
		<rect x="48.604" y="208" width="152" height="16" fill="#55a455"/>
	</g>
</g>
<g>
	<g>
		<rect x="48.604" y="240" width="152" height="16" fill="#55a455"/>
	</g>
</g>
<g>
	<g>
		<rect x="320.604" y="112" width="16" height="16" fill="#55a455"/>
	</g>
</g>
<g>
	<g>
		<rect x="320.604" y="144" width="16" height="16" fill="#55a455"/>
	</g>
</g>
<g>
	<g>
		<rect x="320.604" y="176" width="16" height="16" fill="#55a455"/>
	</g>
</g>
<g>
	<g>
		<rect x="216.604" y="208" width="16" height="16" fill="#55a455"/>
	</g>
</g>
<g>
	<g>
		<rect x="216.604" y="240" width="16" height="16" fill="#55a455"/>
	</g>
</g>
<g>
</g>
<g>
</g>
<g>
</g>
<g>
</g>
<g>
</g>
<g>
</g>
<g>
</g>
<g>
</g>
<g>
</g>
<g>
</g>
<g>
</g>
<g>
</g>
<g>
</g>
<g>
</g>
<g>
</g>
</svg>
