<?xml version="1.0" encoding="iso-8859-1"?>
<!-- Generator: Adobe Illustrator 16.0.0, SVG Export Plug-In . SVG Version: 6.00 Build 0)  -->
<svg xmlns="http://www.w3.org/2000/svg" xmlns:xlink="http://www.w3.org/1999/xlink" version="1.1" id="Capa_1" x="0px" y="0px" width="512px" height="512px" viewBox="0 0 32 32" style="enable-background:new 0 0 32 32;" xml:space="preserve">
<g>
	<g id="User">
		<g>
			<path d="M16,22c4.963,0,9-4.936,9-11c0-6.064-4.038-11-9-11c-2.447,0-4.734,1.174-6.438,3.305C7.909,5.37,7,8.104,7,11.001     C7,17.064,11.037,22,16,22z M16,2.001c3.859,0,7,4.037,7,9c0,4.962-3.141,9-7,9c-3.859,0-7-4.038-7.001-9     C8.999,6.038,12.14,2.001,16,2.001z M23,20c-0.553,0-1,0.447-1,1s0.447,1,1,1c3.859,0,7,3.141,7,7c0,0.551-0.449,1-1,1H3     c-0.551,0-1-0.449-1-1c0-3.859,3.141-7,7-7c0.553,0,1-0.447,1-1s-0.447-1-1-1c-4.963,0-9,4.037-9,9c0,1.654,1.346,3,3,3h26     c1.654,0,3-1.346,3-3C32,24.038,27.963,20,23,20z" fill="#49a251"/>
		</g>
	</g>
</g>
<g>
</g>
<g>
</g>
<g>
</g>
<g>
</g>
<g>
</g>
<g>
</g>
<g>
</g>
<g>
</g>
<g>
</g>
<g>
</g>
<g>
</g>
<g>
</g>
<g>
</g>
<g>
</g>
<g>
</g>
</svg>
